<svg width="308" height="750" viewBox="0 0 308 750" fill="none" xmlns="http://www.w3.org/2000/svg">
<path d="M159 514C126.333 514 99.8333 509.667 79.5 501C59.1667 492 43.8333 479.667 33.5 464C23.5 448.333 17.6667 430.667 16 411H55C56 427 61.3333 440 71 450C80.6667 459.667 93.3333 466.833 109 471.5C125 476.167 142.5 478.5 161.5 478.5C189.5 478.5 211.667 473.667 228 464C244.333 454 252.5 439.333 252.5 420C252.5 408.333 248.333 399 240 392C232 384.667 221.167 378.667 207.5 374C194.167 369.333 179.5 365.167 163.5 361.5C147.5 357.5 131.333 353.333 115 349C99 344.667 84.1667 339.167 70.5 332.5C57.1667 325.833 46.3333 317.333 38 307C30 296.333 26 282.833 26 266.5C26 239.5 36.3333 217.5 57 200.5C78 183.5 109.167 175 150.5 175C179.833 175 204 179.5 223 188.5C242 197.167 256.167 208.667 265.5 223C275.167 237.333 280.5 252.833 281.5 269.5H243C241 252.833 232.667 238.833 218 227.5C203.333 215.833 180.833 210 150.5 210C131.833 210 116.667 211.833 105 215.5C93.3333 219.167 84.3333 224 78 230C72 235.667 67.8333 241.667 65.5 248C63.5 254.333 62.5 260.333 62.5 266C62.5 277 66.5 286 74.5 293C82.8333 299.667 93.6667 305.333 107 310C120.667 314.333 135.667 318.333 152 322C168.333 325.667 184.5 329.833 200.5 334.5C216.833 338.833 231.667 344.5 245 351.5C258.667 358.167 269.5 366.833 277.5 377.5C285.833 388.167 290 401.833 290 418.5C290 449.167 278.333 472.833 255 489.5C231.667 505.833 199.667 514 159 514Z" fill="white"/>
<path d="M113.555 554V131.539H140.508V554H113.555Z" fill="white"/>
<path d="M178.555 554V131.539H205.508V554H178.555Z" fill="white"/>
</svg>
