<svg width="1015" height="311" viewBox="0 0 1015 311" fill="none" xmlns="http://www.w3.org/2000/svg">
<ellipse cx="152.5" cy="152.695" rx="152.5" ry="152.695" fill="#3CB371"/>
<path d="M154.459 214.895C141.393 214.895 130.793 213.162 122.659 209.695C114.526 206.095 108.393 201.162 104.259 194.895C100.259 188.628 97.926 181.562 97.2594 173.695H112.859C113.259 180.095 115.393 185.295 119.259 189.295C123.126 193.162 128.193 196.028 134.459 197.895C140.859 199.762 147.859 200.695 155.459 200.695C166.659 200.695 175.526 198.762 182.059 194.895C188.593 190.895 191.859 185.028 191.859 177.295C191.859 172.628 190.193 168.895 186.859 166.095C183.659 163.162 179.326 160.762 173.859 158.895C168.526 157.028 162.659 155.362 156.259 153.895C149.859 152.295 143.393 150.628 136.859 148.895C130.459 147.162 124.526 144.962 119.059 142.295C113.726 139.628 109.393 136.228 106.059 132.095C102.859 127.828 101.259 122.428 101.259 115.895C101.259 105.095 105.393 96.2951 113.659 89.4951C122.059 82.6951 134.526 79.2951 151.059 79.2951C162.793 79.2951 172.459 81.0951 180.059 84.6951C187.659 88.1618 193.326 92.7618 197.059 98.4951C200.926 104.228 203.059 110.428 203.459 117.095H188.059C187.259 110.428 183.926 104.828 178.059 100.295C172.193 95.6284 163.193 93.2951 151.059 93.2951C143.593 93.2951 137.526 94.0284 132.859 95.4951C128.193 96.9618 124.593 98.8951 122.059 101.295C119.659 103.562 117.993 105.962 117.059 108.495C116.259 111.028 115.859 113.428 115.859 115.695C115.859 120.095 117.459 123.695 120.659 126.495C123.993 129.162 128.326 131.428 133.659 133.295C139.126 135.028 145.126 136.628 151.659 138.095C158.193 139.562 164.659 141.228 171.059 143.095C177.593 144.828 183.526 147.095 188.859 149.895C194.326 152.562 198.659 156.028 201.859 160.295C205.193 164.562 206.859 170.028 206.859 176.695C206.859 188.962 202.193 198.428 192.859 205.095C183.526 211.628 170.726 214.895 154.459 214.895Z" fill="white"/>
<path d="M360.98 189.88C353.793 189.88 347.963 188.927 343.49 187.02C339.017 185.04 335.643 182.327 333.37 178.88C331.17 175.433 329.887 171.547 329.52 167.22H338.1C338.32 170.74 339.493 173.6 341.62 175.8C343.747 177.927 346.533 179.503 349.98 180.53C353.5 181.557 357.35 182.07 361.53 182.07C367.69 182.07 372.567 181.007 376.16 178.88C379.753 176.68 381.55 173.453 381.55 169.2C381.55 166.633 380.633 164.58 378.8 163.04C377.04 161.427 374.657 160.107 371.65 159.08C368.717 158.053 365.49 157.137 361.97 156.33C358.45 155.45 354.893 154.533 351.3 153.58C347.78 152.627 344.517 151.417 341.51 149.95C338.577 148.483 336.193 146.613 334.36 144.34C332.6 141.993 331.72 139.023 331.72 135.43C331.72 129.49 333.993 124.65 338.54 120.91C343.16 117.17 350.017 115.3 359.11 115.3C365.563 115.3 370.88 116.29 375.06 118.27C379.24 120.177 382.357 122.707 384.41 125.86C386.537 129.013 387.71 132.423 387.93 136.09H379.46C379.02 132.423 377.187 129.343 373.96 126.85C370.733 124.283 365.783 123 359.11 123C355.003 123 351.667 123.403 349.1 124.21C346.533 125.017 344.553 126.08 343.16 127.4C341.84 128.647 340.923 129.967 340.41 131.36C339.97 132.753 339.75 134.073 339.75 135.32C339.75 137.74 340.63 139.72 342.39 141.26C344.223 142.727 346.607 143.973 349.54 145C352.547 145.953 355.847 146.833 359.44 147.64C363.033 148.447 366.59 149.363 370.11 150.39C373.703 151.343 376.967 152.59 379.9 154.13C382.907 155.597 385.29 157.503 387.05 159.85C388.883 162.197 389.8 165.203 389.8 168.87C389.8 175.617 387.233 180.823 382.1 184.49C376.967 188.083 369.927 189.88 360.98 189.88ZM400.826 189V134H409.076V142.36C410.322 140.16 412.302 138.07 415.016 136.09C417.729 134.11 421.322 133.12 425.796 133.12C429.462 133.12 432.836 134.11 435.916 136.09C439.069 137.997 441.526 140.71 443.286 144.23C444.019 142.983 445.156 141.48 446.696 139.72C448.309 137.96 450.399 136.42 452.966 135.1C455.532 133.78 458.612 133.12 462.206 133.12C465.726 133.12 469.026 134.037 472.106 135.87C475.186 137.703 477.679 140.343 479.586 143.79C481.566 147.163 482.556 151.16 482.556 155.78V189H474.306V156C474.306 151.38 472.986 147.677 470.346 144.89C467.779 142.03 464.552 140.6 460.666 140.6C456.632 140.6 453.149 141.957 450.216 144.67C447.282 147.383 445.816 151.197 445.816 156.11V189H437.566V156C437.566 151.38 436.246 147.677 433.606 144.89C431.039 142.03 427.812 140.6 423.926 140.6C419.892 140.6 416.409 141.957 413.476 144.67C410.542 147.383 409.076 151.197 409.076 156.11V189H400.826ZM519.534 189.88C514.18 189.88 509.487 188.633 505.454 186.14C501.494 183.573 498.414 180.127 496.214 175.8C494.014 171.473 492.914 166.707 492.914 161.5C492.914 156.22 494.014 151.453 496.214 147.2C498.414 142.873 501.494 139.463 505.454 136.97C509.487 134.403 514.18 133.12 519.534 133.12C524.08 133.12 527.967 134 531.194 135.76C534.494 137.52 537.17 139.903 539.224 142.91V134H547.474V189H539.224V180.2C537.17 183.133 534.494 185.48 531.194 187.24C527.967 189 524.08 189.88 519.534 189.88ZM520.634 182.4C524.74 182.4 528.187 181.447 530.974 179.54C533.834 177.633 535.997 175.103 537.464 171.95C538.93 168.723 539.664 165.24 539.664 161.5C539.664 157.687 538.93 154.203 537.464 151.05C535.997 147.897 533.834 145.367 530.974 143.46C528.187 141.553 524.74 140.6 520.634 140.6C516.6 140.6 513.117 141.553 510.184 143.46C507.25 145.367 505.014 147.897 503.474 151.05C501.934 154.203 501.164 157.687 501.164 161.5C501.164 165.24 501.934 168.723 503.474 171.95C505.014 175.103 507.25 177.633 510.184 179.54C513.117 181.447 516.6 182.4 520.634 182.4ZM561.744 189V134H569.994V147.53C570.287 146.577 570.837 145.33 571.644 143.79C572.524 142.177 573.77 140.563 575.384 138.95C576.997 137.337 579.014 135.98 581.434 134.88C583.927 133.707 586.86 133.12 590.234 133.12H590.784V141.37H589.794C585.687 141.37 582.13 142.507 579.124 144.78C576.19 146.98 573.917 149.877 572.304 153.47C570.764 156.99 569.994 160.767 569.994 164.8V189H561.744ZM605.604 189V141.26H594.384V134H605.604V114.31H613.854V134H626.504V141.26H613.854V189H605.604ZM660.721 189V116.18H693.391C699.111 116.18 703.621 117.17 706.921 119.15C710.294 121.13 712.714 123.623 714.181 126.63C715.647 129.563 716.381 132.497 716.381 135.43C716.381 140.123 715.391 143.753 713.411 146.32C711.431 148.813 709.157 150.647 706.591 151.82C708.644 152.48 710.697 153.543 712.751 155.01C714.877 156.403 716.637 158.31 718.031 160.73C719.424 163.15 720.121 166.193 720.121 169.86C720.121 175.287 718.031 179.833 713.851 183.5C709.744 187.167 703.547 189 695.261 189H660.721ZM668.971 148.74H693.391C695.957 148.74 698.341 148.3 700.541 147.42C702.814 146.54 704.647 145.183 706.041 143.35C707.434 141.443 708.131 139.023 708.131 136.09C708.131 134.037 707.654 132.093 706.701 130.26C705.821 128.427 704.354 126.923 702.301 125.75C700.321 124.577 697.644 123.99 694.271 123.99H668.971V148.74ZM668.971 181.19H696.141C701.127 181.19 704.977 180.163 707.691 178.11C710.477 175.983 711.871 173.013 711.871 169.2C711.871 165.753 710.551 162.747 707.911 160.18C705.271 157.54 701.054 156.22 695.261 156.22H668.971V181.19ZM753.243 189.88C749.503 189.88 745.946 189 742.573 187.24C739.199 185.407 736.449 182.73 734.323 179.21C732.269 175.617 731.243 171.217 731.243 166.01V134H739.493V165.79C739.493 170.777 740.923 174.81 743.783 177.89C746.716 180.897 750.419 182.4 754.893 182.4C757.973 182.4 760.759 181.703 763.253 180.31C765.746 178.843 767.726 176.863 769.193 174.37C770.733 171.877 771.503 168.98 771.503 165.68V134H779.753V189H771.503V180.42C769.523 183.06 767.103 185.297 764.243 187.13C761.383 188.963 757.716 189.88 753.243 189.88ZM817.307 189.88C811.954 189.88 807.261 188.633 803.227 186.14C799.267 183.573 796.187 180.127 793.987 175.8C791.787 171.473 790.687 166.707 790.687 161.5C790.687 156.22 791.787 151.453 793.987 147.2C796.187 142.873 799.267 139.463 803.227 136.97C807.261 134.403 811.954 133.12 817.307 133.12C821.854 133.12 825.741 134 828.967 135.76C832.267 137.52 834.944 139.903 836.997 142.91V112H845.247V189H836.997V180.2C834.944 183.133 832.267 185.48 828.967 187.24C825.741 189 821.854 189.88 817.307 189.88ZM818.407 182.4C822.514 182.4 825.961 181.447 828.747 179.54C831.607 177.633 833.771 175.103 835.237 171.95C836.704 168.723 837.437 165.24 837.437 161.5C837.437 157.687 836.704 154.203 835.237 151.05C833.771 147.897 831.607 145.367 828.747 143.46C825.961 141.553 822.514 140.6 818.407 140.6C814.374 140.6 810.891 141.553 807.957 143.46C805.024 145.367 802.787 147.897 801.247 151.05C799.707 154.203 798.937 157.687 798.937 161.5C798.937 165.24 799.707 168.723 801.247 171.95C802.787 175.103 805.024 177.633 807.957 179.54C810.891 181.447 814.374 182.4 818.407 182.4ZM884.707 211.66C877.814 211.66 872.204 210.157 867.877 207.15C863.551 204.217 860.617 200.367 859.077 195.6H868.207C869.307 198.313 871.214 200.403 873.927 201.87C876.641 203.41 880.087 204.18 884.267 204.18C890.574 204.18 895.157 202.677 898.017 199.67C900.951 196.737 902.417 192.447 902.417 186.8V179.21C900.364 182.143 897.687 184.527 894.387 186.36C891.161 188.12 887.274 189 882.727 189C877.374 189 872.681 187.79 868.647 185.37C864.687 182.877 861.607 179.503 859.407 175.25C857.207 170.997 856.107 166.267 856.107 161.06C856.107 155.78 857.207 151.05 859.407 146.87C861.607 142.617 864.687 139.28 868.647 136.86C872.681 134.367 877.374 133.12 882.727 133.12C887.274 133.12 891.161 134 894.387 135.76C897.687 137.447 900.364 139.793 902.417 142.8V134H910.667V187.35C910.667 195.197 908.394 201.21 903.847 205.39C899.374 209.57 892.994 211.66 884.707 211.66ZM883.827 181.52C887.861 181.52 891.271 180.603 894.057 178.77C896.917 176.937 899.081 174.48 900.547 171.4C902.087 168.247 902.857 164.8 902.857 161.06C902.857 157.247 902.087 153.8 900.547 150.72C899.081 147.64 896.917 145.183 894.057 143.35C891.271 141.517 887.861 140.6 883.827 140.6C879.794 140.6 876.311 141.517 873.377 143.35C870.444 145.183 868.207 147.64 866.667 150.72C865.127 153.8 864.357 157.247 864.357 161.06C864.357 164.8 865.127 168.247 866.667 171.4C868.207 174.48 870.444 176.937 873.377 178.77C876.311 180.603 879.794 181.52 883.827 181.52ZM949.357 189.88C943.784 189.88 938.907 188.633 934.727 186.14C930.547 183.573 927.284 180.127 924.937 175.8C922.664 171.473 921.527 166.707 921.527 161.5C921.527 156.22 922.627 151.453 924.827 147.2C927.027 142.873 930.18 139.463 934.287 136.97C938.394 134.403 943.234 133.12 948.807 133.12C954.454 133.12 959.294 134.403 963.327 136.97C967.434 139.463 970.587 142.873 972.787 147.2C974.987 151.453 976.087 156.22 976.087 161.5V164.8H929.997C930.437 168.027 931.464 170.997 933.077 173.71C934.764 176.35 937 178.477 939.787 180.09C942.574 181.63 945.8 182.4 949.467 182.4C953.354 182.4 956.617 181.557 959.257 179.87C961.897 178.11 963.95 175.873 965.417 173.16H974.437C972.53 178.073 969.487 182.107 965.307 185.26C961.2 188.34 955.884 189.88 949.357 189.88ZM930.107 157.1H967.507C966.774 152.407 964.794 148.483 961.567 145.33C958.34 142.177 954.087 140.6 948.807 140.6C943.527 140.6 939.274 142.177 936.047 145.33C932.894 148.483 930.914 152.407 930.107 157.1ZM992.108 189V141.26H980.888V134H992.108V114.31H1000.36V134H1013.01V141.26H1000.36V189H992.108Z" fill="white"/>
<path d="M136.279 230V68.0566H146.611V230H136.279Z" fill="white"/>
<path d="M160.279 230V68.0566H170.611V230H160.279Z" fill="white"/>
</svg>
