<svg width="302" height="435" viewBox="0 0 302 435" fill="none" xmlns="http://www.w3.org/2000/svg">
<path d="M159 389C126.333 389 99.8333 384.667 79.5 376C59.1667 367 43.8333 354.667 33.5 339C23.5 323.333 17.6667 305.667 16 286H55C56 302 61.3333 315 71 325C80.6667 334.667 93.3333 341.833 109 346.5C125 351.167 142.5 353.5 161.5 353.5C189.5 353.5 211.667 348.667 228 339C244.333 329 252.5 314.333 252.5 295C252.5 283.333 248.333 274 240 267C232 259.667 221.167 253.667 207.5 249C194.167 244.333 179.5 240.167 163.5 236.5C147.5 232.5 131.333 228.333 115 224C99 219.667 84.1667 214.167 70.5 207.5C57.1667 200.833 46.3333 192.333 38 182C30 171.333 26 157.833 26 141.5C26 114.5 36.3333 92.5 57 75.5C78 58.5 109.167 50 150.5 50C179.833 50 204 54.5 223 63.5C242 72.1667 256.167 83.6667 265.5 98C275.167 112.333 280.5 127.833 281.5 144.5H243C241 127.833 232.667 113.833 218 102.5C203.333 90.8333 180.833 85 150.5 85C131.833 85 116.667 86.8333 105 90.5C93.3333 94.1667 84.3333 99 78 105C72 110.667 67.8333 116.667 65.5 123C63.5 129.333 62.5 135.333 62.5 141C62.5 152 66.5 161 74.5 168C82.8333 174.667 93.6667 180.333 107 185C120.667 189.333 135.667 193.333 152 197C168.333 200.667 184.5 204.833 200.5 209.5C216.833 213.833 231.667 219.5 245 226.5C258.667 233.167 269.5 241.833 277.5 252.5C285.833 263.167 290 276.833 290 293.5C290 324.167 278.333 347.833 255 364.5C231.667 380.833 199.667 389 159 389Z" fill="white"/>
<path d="M113.555 429V6.53906H140.508V429H113.555Z" fill="white"/>
<path d="M178.555 429V6.53906H205.508V429H178.555Z" fill="white"/>
</svg>
