<svg width="286" height="460" viewBox="0 0 286 460" fill="none" xmlns="http://www.w3.org/2000/svg">
<path d="M235.338 322.598C235.338 312.832 233.71 304.124 230.455 296.475C227.2 288.825 221.829 281.989 214.342 275.967C207.018 269.782 197.089 264.085 184.557 258.877C172.187 253.506 156.725 248.216 138.17 243.008C120.429 237.962 104.397 232.428 90.0742 226.406C75.7513 220.384 63.4629 213.467 53.209 205.654C43.1178 197.842 35.3867 188.727 30.0156 178.311C24.6445 167.731 21.959 155.443 21.959 141.445C21.959 127.773 24.8887 115.322 30.748 104.092C36.6074 92.8613 44.8268 83.1771 55.4062 75.0391C66.1484 66.901 78.7624 60.6348 93.248 56.2402C107.896 51.8457 123.928 49.6484 141.344 49.6484C166.246 49.6484 187.73 54.3685 205.797 63.8086C224.026 73.2487 238.105 86.0254 248.033 102.139C258.124 118.089 263.17 135.993 263.17 155.85H233.141C233.141 140.387 229.479 126.634 222.154 114.59C214.993 102.383 204.576 92.8613 190.904 86.0254C177.395 79.0267 160.875 75.5273 141.344 75.5273C121.812 75.5273 105.374 78.5384 92.0273 84.5605C78.8438 90.4199 68.834 98.3138 61.998 108.242C55.3249 118.008 51.9883 128.913 51.9883 140.957C51.9883 149.421 53.6159 157.233 56.8711 164.395C60.1263 171.393 65.416 177.985 72.7402 184.17C80.2272 190.192 90.0742 195.889 102.281 201.26C114.488 206.468 129.544 211.432 147.447 216.152C166.327 221.361 183.092 227.139 197.74 233.486C212.389 239.834 224.758 247.158 234.85 255.459C244.941 263.597 252.59 273.118 257.799 284.023C263.007 294.928 265.611 307.624 265.611 322.109C265.611 336.595 262.519 349.616 256.334 361.172C250.312 372.565 241.767 382.249 230.699 390.225C219.794 398.2 206.855 404.303 191.881 408.535C177.07 412.767 160.875 414.883 143.297 414.883C127.509 414.883 111.803 412.848 96.1777 408.779C80.5527 404.71 66.2298 398.444 53.209 389.98C40.3509 381.354 30.0156 370.286 22.2031 356.777C14.5534 343.268 10.7285 327.155 10.7285 308.438H40.5137C40.5137 323.411 43.5247 336.025 49.5469 346.279C55.569 356.533 63.5443 364.834 73.4727 371.182C83.5638 377.529 94.6315 382.168 106.676 385.098C118.883 387.865 131.09 389.248 143.297 389.248C162.014 389.248 178.209 386.481 191.881 380.947C205.715 375.413 216.376 367.682 223.863 357.754C231.513 347.663 235.338 335.944 235.338 322.598Z" fill="white"/>
<path d="M169.555 444V21.5391H196.508V444H169.555Z" fill="white"/>
<path d="M99.5547 444V21.5391H126.508V444H99.5547Z" fill="white"/>
</svg>
