<svg width="208" height="336" viewBox="0 0 208 336" fill="none" xmlns="http://www.w3.org/2000/svg">
<path d="M178.931 229.673C178.931 222.267 177.677 215.659 175.171 209.849C172.664 203.924 168.506 198.683 162.695 194.126C156.999 189.455 149.479 185.125 140.137 181.138C130.794 177.15 119.287 173.276 105.615 169.517C93.0827 166.099 81.7464 162.396 71.6064 158.408C61.5804 154.307 52.9785 149.635 45.8008 144.395C38.737 139.154 33.3252 132.944 29.5654 125.767C25.8057 118.475 23.9258 109.873 23.9258 99.9609C23.9258 90.3906 25.9766 81.7887 30.0781 74.1553C34.1797 66.5218 39.9333 60.0277 47.3389 54.6729C54.8584 49.2041 63.6312 45.0456 73.6572 42.1973C83.7972 39.235 94.8486 37.7539 106.812 37.7539C123.56 37.7539 138.2 40.944 150.732 47.3242C163.265 53.5905 173.063 62.3063 180.127 73.4717C187.191 84.5231 190.723 97.2266 190.723 111.582H176.88C176.88 99.847 173.975 89.3652 168.164 80.1367C162.467 70.9082 154.378 63.6735 143.896 58.4326C133.529 53.0778 121.167 50.4004 106.812 50.4004C92.0003 50.4004 79.4108 52.679 69.043 57.2363C58.7891 61.7936 50.9847 67.832 45.6299 75.3516C40.389 82.7572 37.7686 90.8464 37.7686 99.6191C37.7686 105.885 38.9079 111.753 41.1865 117.222C43.5791 122.69 47.4528 127.703 52.8076 132.261C58.2764 136.818 65.625 141.147 74.8535 145.249C84.196 149.237 95.8171 153.11 109.717 156.87C122.477 160.174 133.927 163.934 144.067 168.149C154.321 172.251 163.094 177.093 170.386 182.676C177.677 188.258 183.26 194.867 187.134 202.5C191.007 210.133 192.944 219.077 192.944 229.331C192.944 239.471 190.78 248.529 186.45 256.504C182.121 264.365 176.082 271.087 168.335 276.67C160.701 282.139 151.701 286.297 141.333 289.146C131.079 291.994 120.028 293.418 108.179 293.418C97.3551 293.418 86.4746 292.108 75.5371 289.487C64.7135 286.867 54.8014 282.651 45.8008 276.841C36.8001 271.03 29.5654 263.397 24.0967 253.94C18.6279 244.484 15.8936 232.977 15.8936 219.419H29.7363C29.7363 231.04 32.1289 240.838 36.9141 248.813C41.6992 256.675 47.9655 262.941 55.7129 267.612C63.4603 272.284 71.8913 275.645 81.0059 277.695C90.2344 279.746 99.292 280.771 108.179 280.771C122.078 280.771 134.326 278.664 144.922 274.448C155.632 270.119 163.949 264.137 169.873 256.504C175.911 248.757 178.931 239.813 178.931 229.673Z" fill="white"/>
<path d="M126.053 323V12.3066H138.797V323H126.053Z" fill="white"/>
<path d="M79.0527 323V12.3066H91.7969V323H79.0527Z" fill="white"/>
</svg>
